<svg width="390" height="588" viewBox="0 0 390 588" fill="none" xmlns="http://www.w3.org/2000/svg">
<path fill-rule="evenodd" clip-rule="evenodd" d="M298.01 247.478C320.145 364.648 243.807 477.445 127.504 499.416C76.371 509.076 26.0263 499.571 -16.2208 475.929C-39.1909 497.737 -68.5206 513.42 -101.996 519.744C-112.471 521.722 -122.902 522.7 -133.19 522.744C-152.125 542.641 -177.198 556.979 -206.171 562.452C-280.125 576.423 -351.486 527.35 -365.562 452.845C-376.876 392.954 -347.729 334.86 -297.445 307.117C-280.41 247.072 -230.686 198.632 -165.002 186.224C-143.604 182.181 -122.388 182.317 -102.2 186.056C-72.8074 130.097 -19.2908 87.693 47.3452 75.1045C163.648 53.1331 275.875 130.307 298.01 247.478Z" fill="white" fill-opacity="0.25"/>
<path fill-rule="evenodd" clip-rule="evenodd" d="M424.872 149.791C440.418 232.081 386.311 311.393 304.021 326.938C267.842 333.773 232.239 327.144 202.378 310.577C186.109 325.918 165.347 336.963 141.662 341.437C134.25 342.838 126.871 343.534 119.593 343.575C106.18 357.57 88.4305 367.666 67.9305 371.539C15.605 381.424 -34.8267 347.019 -44.7118 294.694C-52.6579 252.632 -31.9848 211.793 3.6106 192.256C15.7182 150.059 50.9374 115.983 97.4115 107.203C112.552 104.343 127.559 104.418 141.836 107.026C162.681 67.687 200.577 37.8475 247.725 28.9405C330.015 13.3948 409.326 67.5016 424.872 149.791Z" fill="white" fill-opacity="0.41"/>
<path fill-rule="evenodd" clip-rule="evenodd" d="M418.872 183.791C434.418 266.081 380.311 345.393 298.021 360.938C261.842 367.773 226.239 361.144 196.378 344.577C180.109 359.918 159.347 370.963 135.662 375.437C128.25 376.838 120.871 377.534 113.593 377.575C100.18 391.57 82.4305 401.666 61.9305 405.539C9.60496 415.424 -40.8267 381.019 -50.7118 328.694C-58.6579 286.632 -37.9848 245.793 -2.3894 226.256C9.71818 184.059 44.9374 149.983 91.4115 141.203C106.552 138.343 121.559 138.418 135.836 141.026C156.681 101.687 194.577 71.8475 241.725 62.9405C324.015 47.3948 403.326 101.502 418.872 183.791Z" fill="white" fill-opacity="0.09"/>
</svg>
