<svg width="214" height="85" viewBox="0 0 214 85" fill="none" xmlns="http://www.w3.org/2000/svg">
<g filter="url(#filter0_d_10_59)">
<path d="M31.7532 29.3228C31.5685 27.4608 30.776 26.0143 29.3757 24.9833C27.9754 23.9523 26.0749 23.4368 23.6744 23.4368C22.0432 23.4368 20.666 23.6676 19.5426 24.1293C18.4193 24.5755 17.5575 25.1987 16.9574 25.9989C16.3726 26.7991 16.0803 27.707 16.0803 28.7227C16.0495 29.569 16.2264 30.3076 16.6112 30.9386C17.0112 31.5695 17.5575 32.1158 18.25 32.5774C18.9425 33.0237 19.7427 33.4161 20.6506 33.7546C21.5585 34.0778 22.5279 34.3548 23.559 34.5856L27.8061 35.6012C29.8681 36.0629 31.7609 36.6784 33.4844 37.4478C35.2079 38.2172 36.7005 39.1636 37.9624 40.2869C39.2242 41.4103 40.2014 42.7337 40.8938 44.2571C41.6017 45.7805 41.9633 47.5271 41.9787 49.4968C41.9633 52.3898 41.2247 54.8981 39.7628 57.0217C38.3163 59.1299 36.2235 60.7687 33.4844 61.9382C30.7607 63.0923 27.4753 63.6694 23.6282 63.6694C19.8119 63.6694 16.488 63.0846 13.6566 61.9151C10.8406 60.7456 8.64003 59.0144 7.05504 56.7216C5.48544 54.4134 4.66217 51.5588 4.58523 48.158H14.2567C14.3645 49.743 14.8184 51.0664 15.6186 52.1282C16.4342 53.1746 17.5191 53.9671 18.8732 54.5057C20.2428 55.0289 21.7893 55.2905 23.5128 55.2905C25.2055 55.2905 26.6751 55.0443 27.9215 54.5518C29.1834 54.0594 30.1605 53.3746 30.853 52.4975C31.5455 51.6204 31.8917 50.6125 31.8917 49.4737C31.8917 48.4119 31.5762 47.5194 30.9453 46.7962C30.3298 46.0729 29.4219 45.4574 28.2216 44.9496C27.0367 44.4418 25.5825 43.9801 23.859 43.5646L18.7116 42.272C14.7261 41.3026 11.5792 39.7868 9.27095 37.7248C6.96271 35.6628 5.81629 32.8852 5.83168 29.392C5.81629 26.5298 6.57801 24.0292 8.11683 21.8903C9.67105 19.7513 11.8023 18.0817 14.5107 16.8814C17.219 15.6811 20.2966 15.081 23.7436 15.081C27.2521 15.081 30.3144 15.6811 32.9304 16.8814C35.5618 18.0817 37.6084 19.7513 39.0703 21.8903C40.5322 24.0292 41.2862 26.5067 41.3324 29.3228H31.7532ZM52.8249 42.5028V63H42.9918V27.5455H52.3632V33.8008H52.7787C53.5635 31.7388 54.8792 30.1076 56.7258 28.9073C58.5724 27.6916 60.8114 27.0838 63.4428 27.0838C65.9049 27.0838 68.0516 27.6224 69.8828 28.6996C71.714 29.7768 73.1374 31.3156 74.153 33.316C75.1686 35.3011 75.6764 37.6709 75.6764 40.4254V63H65.8433V42.1797C65.8587 40.0099 65.3048 38.3172 64.1814 37.1016C63.0581 35.8705 61.5115 35.255 59.5418 35.255C58.2185 35.255 57.049 35.5397 56.0333 36.109C55.0331 36.6784 54.2483 37.5094 53.6789 38.6019C53.1249 39.6791 52.8403 40.9794 52.8249 42.5028ZM88.0114 63.6694C85.7494 63.6694 83.7335 63.277 81.9638 62.4922C80.1942 61.692 78.7939 60.5148 77.7629 58.9606C76.7472 57.391 76.2394 55.4367 76.2394 53.0977C76.2394 51.128 76.601 49.4737 77.3243 48.1349C78.0475 46.7962 79.0324 45.719 80.2788 44.9034C81.5253 44.0878 82.941 43.4723 84.526 43.0568C86.1264 42.6413 87.8037 42.349 89.558 42.1797C91.62 41.9643 93.2819 41.7642 94.5437 41.5795C95.8056 41.3795 96.7212 41.0871 97.2906 40.7024C97.8599 40.3177 98.1446 39.7483 98.1446 38.9943V38.8558C98.1446 37.3939 97.683 36.2629 96.7597 35.4627C95.8517 34.6625 94.5591 34.2624 92.8818 34.2624C91.1122 34.2624 89.7041 34.6548 88.6577 35.4396C87.6113 36.209 86.9189 37.1785 86.5803 38.348L77.4859 37.6094C77.9475 35.455 78.8554 33.593 80.2096 32.0234C81.5638 30.4384 83.3103 29.2228 85.4493 28.3764C87.6036 27.5147 90.0965 27.0838 92.928 27.0838C94.8977 27.0838 96.7827 27.3146 98.5832 27.7763C100.399 28.2379 102.007 28.9535 103.407 29.9229C104.823 30.8924 105.939 32.1388 106.754 33.6623C107.57 35.1703 107.978 36.9785 107.978 39.0866V63H98.6524V58.0835H98.3754C97.8061 59.1914 97.0443 60.1686 96.0903 61.0149C95.1362 61.8459 93.9898 62.4999 92.651 62.9769C91.3122 63.4386 89.7657 63.6694 88.0114 63.6694ZM90.8275 56.8832C92.274 56.8832 93.5512 56.5985 94.6592 56.0291C95.7671 55.4444 96.6365 54.6596 97.2675 53.6747C97.8984 52.6899 98.2138 51.5742 98.2138 50.3278V46.5653C97.9061 46.7654 97.4829 46.95 96.9443 47.1193C96.4211 47.2732 95.8287 47.4194 95.167 47.5579C94.5053 47.681 93.8436 47.7964 93.1819 47.9041C92.5202 47.9964 91.92 48.0811 91.3815 48.158C90.2273 48.3273 89.2194 48.5966 88.3577 48.9659C87.4959 49.3352 86.8265 49.8353 86.3495 50.4663C85.8725 51.0818 85.6339 51.8512 85.6339 52.7745C85.6339 54.1133 86.1187 55.1366 87.0881 55.8445C88.073 56.5369 89.3194 56.8832 90.8275 56.8832ZM110.081 76.2955V27.5455H119.776V33.5007H120.215C120.645 32.5466 121.269 31.5772 122.084 30.5923C122.915 29.5921 123.992 28.7611 125.316 28.0994C126.655 27.4223 128.317 27.0838 130.302 27.0838C132.887 27.0838 135.272 27.7609 137.457 29.1151C139.642 30.4538 141.389 32.4774 142.697 35.1857C144.005 37.8787 144.659 41.2564 144.659 45.3189C144.659 49.2737 144.02 52.6129 142.743 55.3366C141.481 58.045 139.758 60.0993 137.573 61.4996C135.403 62.8846 132.971 63.5771 130.279 63.5771C128.37 63.5771 126.747 63.2616 125.408 62.6307C124.085 61.9998 123 61.2073 122.154 60.2532C121.307 59.2837 120.661 58.3066 120.215 57.3217H119.915V76.2955H110.081ZM119.707 45.2727C119.707 47.3809 119.999 49.2198 120.584 50.7894C121.169 52.359 122.015 53.5824 123.123 54.4595C124.231 55.3213 125.577 55.7521 127.162 55.7521C128.763 55.7521 130.117 55.3136 131.225 54.4364C132.333 53.5439 133.172 52.3129 133.741 50.7433C134.326 49.1583 134.618 47.3348 134.618 45.2727C134.618 43.2261 134.333 41.4257 133.764 39.8714C133.195 38.3172 132.356 37.1016 131.248 36.2244C130.14 35.3473 128.778 34.9087 127.162 34.9087C125.562 34.9087 124.208 35.3319 123.1 36.1783C122.007 37.0246 121.169 38.2249 120.584 39.7791C119.999 41.3333 119.707 43.1645 119.707 45.2727ZM145.689 63V27.5455H155.522V63H145.689ZM150.629 22.9751C149.167 22.9751 147.913 22.4904 146.866 21.5209C145.835 20.5361 145.32 19.3589 145.32 17.9893C145.32 16.6352 145.835 15.4734 146.866 14.5039C147.913 13.5191 149.167 13.0266 150.629 13.0266C152.091 13.0266 153.337 13.5191 154.368 14.5039C155.415 15.4734 155.938 16.6352 155.938 17.9893C155.938 19.3589 155.415 20.5361 154.368 21.5209C153.337 22.4904 152.091 22.9751 150.629 22.9751ZM176.733 27.5455V34.9318H155.381V27.5455H176.733ZM160.229 19.0511H170.062V52.1051C170.062 53.013 170.2 53.7209 170.477 54.2287C170.754 54.7211 171.139 55.0674 171.631 55.2674C172.139 55.4674 172.724 55.5675 173.386 55.5675C173.847 55.5675 174.309 55.529 174.771 55.4521C175.232 55.3597 175.586 55.2905 175.832 55.2443L177.379 62.5614C176.886 62.7153 176.194 62.8923 175.301 63.0923C174.409 63.3078 173.324 63.4386 172.047 63.4847C169.677 63.5771 167.6 63.2616 165.815 62.5384C164.045 61.8151 162.668 60.6918 161.683 59.1683C160.698 57.6449 160.213 55.7214 160.229 53.3977V19.0511Z" fill="white"/>
</g>
<path d="M180.415 34V31.3409L186.628 25.5881C187.156 25.0767 187.599 24.6165 187.957 24.2074C188.321 23.7983 188.597 23.3977 188.784 23.0057C188.972 22.608 189.065 22.179 189.065 21.7188C189.065 21.2074 188.949 20.767 188.716 20.3977C188.483 20.0227 188.165 19.7358 187.761 19.5369C187.358 19.3324 186.901 19.2301 186.389 19.2301C185.855 19.2301 185.389 19.3381 184.991 19.554C184.594 19.7699 184.287 20.0795 184.071 20.483C183.855 20.8864 183.747 21.3665 183.747 21.9233H180.244C180.244 20.7812 180.503 19.7898 181.02 18.9489C181.537 18.108 182.261 17.4574 183.193 16.9972C184.125 16.5369 185.199 16.3068 186.415 16.3068C187.665 16.3068 188.753 16.5284 189.679 16.9716C190.611 17.4091 191.335 18.017 191.852 18.7955C192.369 19.5739 192.628 20.4659 192.628 21.4716C192.628 22.1307 192.497 22.7812 192.236 23.4233C191.98 24.0653 191.523 24.7784 190.864 25.5625C190.205 26.3409 189.276 27.2756 188.077 28.3665L185.528 30.8636V30.983H192.858V34H180.415ZM195.648 34.2216C195.086 34.2216 194.603 34.0227 194.199 33.625C193.802 33.2216 193.603 32.7386 193.603 32.1761C193.603 31.6193 193.802 31.142 194.199 30.7443C194.603 30.3466 195.086 30.1477 195.648 30.1477C196.194 30.1477 196.671 30.3466 197.08 30.7443C197.489 31.142 197.694 31.6193 197.694 32.1761C197.694 32.5511 197.597 32.8949 197.404 33.2074C197.216 33.5142 196.969 33.7614 196.662 33.9489C196.356 34.1307 196.018 34.2216 195.648 34.2216ZM204.741 34.3835C203.275 34.3778 202.014 34.017 200.957 33.3011C199.906 32.5852 199.096 31.5483 198.528 30.1903C197.965 28.8324 197.687 27.1989 197.693 25.2898C197.693 23.3864 197.974 21.7642 198.536 20.4233C199.105 19.0824 199.914 18.0625 200.965 17.3636C202.022 16.6591 203.281 16.3068 204.741 16.3068C206.201 16.3068 207.457 16.6591 208.508 17.3636C209.565 18.0682 210.377 19.0909 210.946 20.4318C211.514 21.767 211.795 23.3864 211.789 25.2898C211.789 27.2045 211.505 28.8409 210.937 30.1989C210.375 31.5568 209.568 32.5937 208.517 33.3097C207.465 34.0256 206.207 34.3835 204.741 34.3835ZM204.741 31.3239C205.741 31.3239 206.539 30.821 207.136 29.8153C207.733 28.8097 208.028 27.3011 208.022 25.2898C208.022 23.9659 207.886 22.8636 207.613 21.983C207.346 21.1023 206.965 20.4403 206.471 19.9972C205.983 19.554 205.406 19.3324 204.741 19.3324C203.747 19.3324 202.951 19.8295 202.355 20.8239C201.758 21.8182 201.457 23.3068 201.451 25.2898C201.451 26.6307 201.585 27.75 201.852 28.6477C202.125 29.5398 202.508 30.2102 203.002 30.6591C203.497 31.1023 204.076 31.3239 204.741 31.3239Z" fill="#6491D1"/>
<path d="M153.411 23C156.498 23 159 20.5376 159 17.5C159 14.4624 156.498 12 153.411 12C151.642 12 150.065 12.8084 149.041 14.0701C148.542 13.881 147.999 13.7773 147.431 13.7773C145.687 13.7773 144.178 14.7547 143.451 16.1771C142.028 16.6337 141 17.9501 141 19.5027C141 21.4342 142.591 23 144.554 23C144.674 23 144.793 22.9942 144.909 22.9827C145.018 22.9941 145.128 23 145.24 23H152.179C152.358 23 152.533 22.985 152.703 22.9563C152.935 22.9852 153.171 23 153.411 23Z" fill="white"/>
<defs>
<filter id="filter0_d_10_59" x="0.585205" y="13.0266" width="180.794" height="71.2688" filterUnits="userSpaceOnUse" color-interpolation-filters="sRGB">
<feFlood flood-opacity="0" result="BackgroundImageFix"/>
<feColorMatrix in="SourceAlpha" type="matrix" values="0 0 0 0 0 0 0 0 0 0 0 0 0 0 0 0 0 0 127 0" result="hardAlpha"/>
<feOffset dy="4"/>
<feGaussianBlur stdDeviation="2"/>
<feComposite in2="hardAlpha" operator="out"/>
<feColorMatrix type="matrix" values="0 0 0 0 0.188235 0 0 0 0 0.427451 0 0 0 0 0.756863 0 0 0 0.59 0"/>
<feBlend mode="normal" in2="BackgroundImageFix" result="effect1_dropShadow_10_59"/>
<feBlend mode="normal" in="SourceGraphic" in2="effect1_dropShadow_10_59" result="shape"/>
</filter>
</defs>
</svg>
