<svg width="327" height="214" viewBox="0 0 327 214" fill="none" xmlns="http://www.w3.org/2000/svg">
<g filter="url(#filter0_d_39_30)">
<mask id="path-1-outside-1_39_30" maskUnits="userSpaceOnUse" x="4" y="0" width="319" height="206" fill="black">
<rect fill="white" x="4" width="319" height="206"/>
<path fill-rule="evenodd" clip-rule="evenodd" d="M221.451 194.975C271.256 193.819 311.275 153.083 311.275 103C311.275 52.1898 270.085 11 219.275 11C190.163 11 164.21 24.5215 147.352 45.6268C139.134 42.4644 130.196 40.7293 120.847 40.7293C92.1515 40.7293 67.3167 57.0781 55.3459 80.8715C31.9244 88.51 15 110.529 15 136.5C15 168.809 41.1913 195 73.5 195C75.4392 195 77.3564 194.906 79.2472 194.721C80.5898 194.905 81.9606 195 83.3537 195H219.275H220.21C220.626 195 221.04 194.992 221.451 194.975Z"/>
</mask>
<path fill-rule="evenodd" clip-rule="evenodd" d="M221.451 194.975C271.256 193.819 311.275 153.083 311.275 103C311.275 52.1898 270.085 11 219.275 11C190.163 11 164.21 24.5215 147.352 45.6268C139.134 42.4644 130.196 40.7293 120.847 40.7293C92.1515 40.7293 67.3167 57.0781 55.3459 80.8715C31.9244 88.51 15 110.529 15 136.5C15 168.809 41.1913 195 73.5 195C75.4392 195 77.3564 194.906 79.2472 194.721C80.5898 194.905 81.9606 195 83.3537 195H219.275H220.21C220.626 195 221.04 194.992 221.451 194.975Z" fill="white" shape-rendering="crispEdges"/>
<path d="M221.451 194.975L221.196 183.978L221.1 183.98L221.004 183.984L221.451 194.975ZM147.352 45.6268L143.401 55.8928L150.919 58.786L155.947 52.4919L147.352 45.6268ZM55.3459 80.8715L58.7566 91.3294L63.1129 89.9087L65.1723 85.8153L55.3459 80.8715ZM79.2472 194.721L80.739 183.823L79.4622 183.648L78.1796 183.773L79.2472 194.721ZM300.275 103C300.275 147.093 265.041 182.96 221.196 183.978L221.707 205.972C277.472 204.677 322.275 159.072 322.275 103H300.275ZM219.275 22C264.01 22 300.275 58.2649 300.275 103H322.275C322.275 46.1147 276.16 0 219.275 0V22ZM155.947 52.4919C170.807 33.8874 193.649 22 219.275 22V0C186.678 0 157.612 15.1555 138.757 38.7617L155.947 52.4919ZM120.847 51.7293C128.825 51.7293 136.426 53.2085 143.401 55.8928L151.303 35.3607C141.843 31.7202 131.566 29.7293 120.847 29.7293V51.7293ZM65.1723 85.8153C75.3257 65.6342 96.4198 51.7293 120.847 51.7293V29.7293C87.8832 29.7293 59.3077 48.5219 45.5195 75.9277L65.1723 85.8153ZM26 136.5C26 115.429 39.7276 97.5353 58.7566 91.3294L51.9353 70.4136C24.1212 79.4847 4 105.628 4 136.5H26ZM73.5 184C47.2665 184 26 162.734 26 136.5H4C4 174.884 35.1162 206 73.5 206V184ZM78.1796 183.773C76.6431 183.923 75.0822 184 73.5 184V206C75.7963 206 78.0697 205.888 80.3147 205.669L78.1796 183.773ZM83.3537 184C82.4611 184 81.5886 183.939 80.739 183.823L77.7554 205.62C79.5909 205.871 81.4602 206 83.3537 206V184ZM219.275 184H83.3537V206H219.275V184ZM220.21 184H219.275V206H220.21V184ZM221.004 183.984C220.741 183.995 220.476 184 220.21 184V206C220.775 206 221.338 205.988 221.899 205.966L221.004 183.984Z" fill="url(#paint0_linear_39_30)" fill-opacity="0.64" mask="url(#path-1-outside-1_39_30)"/>
</g>
<path d="M75.8849 161V150.818H79.9616C80.7107 150.818 81.3355 150.929 81.8359 151.151C82.3364 151.373 82.7126 151.682 82.9645 152.076C83.2164 152.467 83.3423 152.918 83.3423 153.428C83.3423 153.826 83.2628 154.176 83.1037 154.477C82.9446 154.776 82.7259 155.021 82.4474 155.213C82.1723 155.402 81.8575 155.536 81.5028 155.616V155.715C81.8906 155.732 82.2536 155.841 82.5916 156.043C82.933 156.246 83.2098 156.529 83.4219 156.893C83.634 157.255 83.7401 157.686 83.7401 158.186C83.7401 158.726 83.6058 159.209 83.3374 159.633C83.0722 160.054 82.6795 160.387 82.1591 160.632C81.6387 160.877 80.9974 161 80.2351 161H75.8849ZM78.0376 159.24H79.7926C80.3925 159.24 80.83 159.126 81.1051 158.897C81.3802 158.665 81.5178 158.357 81.5178 157.972C81.5178 157.691 81.4498 157.442 81.3139 157.227C81.178 157.011 80.9841 156.842 80.7322 156.719C80.4837 156.597 80.187 156.536 79.8423 156.536H78.0376V159.24ZM78.0376 155.079H79.6335C79.9285 155.079 80.1903 155.027 80.419 154.925C80.651 154.819 80.8333 154.67 80.9659 154.477C81.1018 154.285 81.1697 154.055 81.1697 153.786C81.1697 153.418 81.0388 153.122 80.777 152.896C80.5185 152.671 80.1506 152.558 79.6733 152.558H78.0376V155.079ZM85.101 161V153.364H87.2189V161H85.101ZM86.165 152.379C85.8501 152.379 85.58 152.275 85.3546 152.066C85.1325 151.854 85.0215 151.6 85.0215 151.305C85.0215 151.014 85.1325 150.763 85.3546 150.555C85.58 150.343 85.8501 150.237 86.165 150.237C86.4798 150.237 86.7483 150.343 86.9703 150.555C87.1957 150.763 87.3084 151.014 87.3084 151.305C87.3084 151.6 87.1957 151.854 86.9703 152.066C86.7483 152.275 86.4798 152.379 86.165 152.379ZM91.0334 150.818V161H88.9155V150.818H91.0334ZM95.5439 161.124C94.9638 161.124 94.4385 160.975 93.9679 160.677C93.5005 160.375 93.1293 159.933 92.8542 159.349C92.5824 158.763 92.4466 158.044 92.4466 157.192C92.4466 156.317 92.5874 155.589 92.8691 155.009C93.1509 154.426 93.5254 153.99 93.9927 153.702C94.4634 153.41 94.9788 153.264 95.5389 153.264C95.9664 153.264 96.3227 153.337 96.6078 153.483C96.8961 153.625 97.1281 153.804 97.3038 154.02C97.4828 154.232 97.6187 154.441 97.7115 154.646H97.7761V150.818H99.889V161H97.801V159.777H97.7115C97.612 159.989 97.4712 160.2 97.2889 160.408C97.1099 160.614 96.8762 160.785 96.5879 160.92C96.3029 161.056 95.9548 161.124 95.5439 161.124ZM96.215 159.439C96.5564 159.439 96.8448 159.346 97.0801 159.161C97.3187 158.972 97.501 158.708 97.627 158.37C97.7562 158.032 97.8208 157.636 97.8208 157.182C97.8208 156.728 97.7579 156.333 97.6319 155.999C97.506 155.664 97.3237 155.405 97.085 155.223C96.8464 155.041 96.5564 154.95 96.215 154.95C95.867 154.95 95.5737 155.044 95.335 155.233C95.0964 155.422 94.9158 155.684 94.7931 156.018C94.6705 156.353 94.6092 156.741 94.6092 157.182C94.6092 157.626 94.6705 158.019 94.7931 158.36C94.9191 158.698 95.0997 158.963 95.335 159.156C95.5737 159.344 95.867 159.439 96.215 159.439ZM106.377 161L104.299 153.364H106.442L107.625 158.494H107.694L108.927 153.364H111.03L112.283 158.464H112.348L113.511 153.364H115.649L113.576 161H111.334L110.021 156.197H109.927L108.614 161H106.377ZM116.779 161V153.364H118.897V161H116.779ZM117.843 152.379C117.528 152.379 117.258 152.275 117.032 152.066C116.81 151.854 116.699 151.6 116.699 151.305C116.699 151.014 116.81 150.763 117.032 150.555C117.258 150.343 117.528 150.237 117.843 150.237C118.158 150.237 118.426 150.343 118.648 150.555C118.873 150.763 118.986 151.014 118.986 151.305C118.986 151.6 118.873 151.854 118.648 152.066C118.426 152.275 118.158 152.379 117.843 152.379ZM120.593 161V153.364H122.646V154.696H122.726C122.865 154.222 123.099 153.864 123.427 153.622C123.755 153.377 124.133 153.254 124.561 153.254C124.667 153.254 124.781 153.261 124.904 153.274C125.026 153.287 125.134 153.306 125.227 153.329V155.208C125.127 155.178 124.99 155.152 124.814 155.129C124.638 155.105 124.478 155.094 124.332 155.094C124.02 155.094 123.742 155.162 123.497 155.298C123.255 155.43 123.062 155.616 122.92 155.854C122.781 156.093 122.711 156.368 122.711 156.68V161H120.593ZM128.78 161.124C128.2 161.124 127.675 160.975 127.204 160.677C126.737 160.375 126.366 159.933 126.091 159.349C125.819 158.763 125.683 158.044 125.683 157.192C125.683 156.317 125.824 155.589 126.105 155.009C126.387 154.426 126.762 153.99 127.229 153.702C127.7 153.41 128.215 153.264 128.775 153.264C129.203 153.264 129.559 153.337 129.844 153.483C130.132 153.625 130.364 153.804 130.54 154.02C130.719 154.232 130.855 154.441 130.948 154.646H131.012V150.818H133.125V161H131.037V159.777H130.948C130.848 159.989 130.708 160.2 130.525 160.408C130.346 160.614 130.113 160.785 129.824 160.92C129.539 161.056 129.191 161.124 128.78 161.124ZM129.451 159.439C129.793 159.439 130.081 159.346 130.316 159.161C130.555 158.972 130.737 158.708 130.863 158.37C130.993 158.032 131.057 157.636 131.057 157.182C131.057 156.728 130.994 156.333 130.868 155.999C130.742 155.664 130.56 155.405 130.321 155.223C130.083 155.041 129.793 154.95 129.451 154.95C129.103 154.95 128.81 155.044 128.571 155.233C128.333 155.422 128.152 155.684 128.029 156.018C127.907 156.353 127.846 156.741 127.846 157.182C127.846 157.626 127.907 158.019 128.029 158.36C128.155 158.698 128.336 158.963 128.571 159.156C128.81 159.344 129.103 159.439 129.451 159.439ZM141.547 164.023C140.861 164.023 140.273 163.928 139.782 163.739C139.295 163.554 138.907 163.3 138.619 162.979C138.331 162.657 138.143 162.296 138.057 161.895L140.016 161.631C140.076 161.784 140.17 161.926 140.299 162.059C140.429 162.192 140.599 162.298 140.811 162.377C141.027 162.46 141.289 162.501 141.597 162.501C142.058 162.501 142.437 162.389 142.735 162.163C143.037 161.941 143.188 161.568 143.188 161.045V159.648H143.098C143.006 159.86 142.866 160.06 142.681 160.249C142.495 160.438 142.257 160.592 141.965 160.712C141.673 160.831 141.325 160.891 140.921 160.891C140.347 160.891 139.825 160.758 139.355 160.493C138.887 160.224 138.515 159.815 138.236 159.265C137.961 158.711 137.824 158.012 137.824 157.167C137.824 156.302 137.964 155.579 138.246 154.999C138.528 154.419 138.902 153.985 139.37 153.697C139.84 153.408 140.356 153.264 140.916 153.264C141.343 153.264 141.701 153.337 141.99 153.483C142.278 153.625 142.51 153.804 142.686 154.02C142.865 154.232 143.002 154.441 143.098 154.646H143.178V153.364H145.281V161.075C145.281 161.724 145.122 162.268 144.804 162.705C144.485 163.143 144.045 163.471 143.481 163.69C142.921 163.912 142.276 164.023 141.547 164.023ZM141.592 159.3C141.933 159.3 142.222 159.215 142.457 159.046C142.696 158.874 142.878 158.629 143.004 158.31C143.133 157.989 143.198 157.604 143.198 157.157C143.198 156.71 143.135 156.322 143.009 155.994C142.883 155.662 142.701 155.405 142.462 155.223C142.223 155.041 141.933 154.95 141.592 154.95C141.244 154.95 140.951 155.044 140.712 155.233C140.473 155.419 140.293 155.677 140.17 156.009C140.047 156.34 139.986 156.723 139.986 157.157C139.986 157.598 140.047 157.979 140.17 158.3C140.296 158.619 140.477 158.866 140.712 159.041C140.951 159.214 141.244 159.3 141.592 159.3ZM149.084 150.818V161H146.966V150.818H149.084ZM154.261 161.149C153.475 161.149 152.799 160.99 152.232 160.672C151.669 160.35 151.235 159.896 150.93 159.31C150.625 158.72 150.472 158.022 150.472 157.217C150.472 156.431 150.625 155.742 150.93 155.148C151.235 154.555 151.664 154.093 152.218 153.761C152.774 153.43 153.427 153.264 154.176 153.264C154.68 153.264 155.149 153.345 155.583 153.508C156.021 153.667 156.402 153.907 156.727 154.229C157.055 154.55 157.31 154.955 157.492 155.442C157.675 155.926 157.766 156.492 157.766 157.142V157.724H151.318V156.411H155.772C155.772 156.106 155.706 155.836 155.573 155.601C155.441 155.366 155.257 155.182 155.021 155.049C154.789 154.913 154.519 154.845 154.211 154.845C153.89 154.845 153.605 154.92 153.356 155.069C153.111 155.215 152.919 155.412 152.779 155.661C152.64 155.906 152.569 156.179 152.566 156.481V157.729C152.566 158.107 152.635 158.433 152.774 158.708C152.917 158.983 153.117 159.195 153.376 159.344C153.634 159.494 153.941 159.568 154.296 159.568C154.531 159.568 154.746 159.535 154.942 159.469C155.137 159.402 155.305 159.303 155.444 159.17C155.583 159.038 155.689 158.875 155.762 158.683L157.721 158.812C157.622 159.283 157.418 159.694 157.11 160.045C156.805 160.393 156.41 160.665 155.926 160.861C155.446 161.053 154.891 161.149 154.261 161.149ZM159.148 161V153.364H161.266V161H159.148ZM160.212 152.379C159.897 152.379 159.627 152.275 159.401 152.066C159.179 151.854 159.068 151.6 159.068 151.305C159.068 151.014 159.179 150.763 159.401 150.555C159.627 150.343 159.897 150.237 160.212 150.237C160.527 150.237 160.795 150.343 161.017 150.555C161.243 150.763 161.355 151.014 161.355 151.305C161.355 151.6 161.243 151.854 161.017 152.066C160.795 152.275 160.527 152.379 160.212 152.379ZM166.413 161.149C165.63 161.149 164.958 160.983 164.394 160.652C163.834 160.317 163.403 159.853 163.102 159.26C162.803 158.667 162.654 157.984 162.654 157.212C162.654 156.429 162.805 155.743 163.107 155.153C163.411 154.56 163.844 154.098 164.404 153.766C164.964 153.432 165.63 153.264 166.403 153.264C167.069 153.264 167.652 153.385 168.153 153.627C168.653 153.869 169.049 154.209 169.341 154.646C169.633 155.084 169.793 155.598 169.823 156.188H167.825C167.768 155.806 167.619 155.5 167.377 155.268C167.138 155.032 166.825 154.915 166.438 154.915C166.109 154.915 165.823 155.004 165.577 155.183C165.335 155.359 165.147 155.616 165.011 155.954C164.875 156.292 164.807 156.701 164.807 157.182C164.807 157.669 164.873 158.083 165.006 158.425C165.142 158.766 165.332 159.026 165.577 159.205C165.823 159.384 166.109 159.474 166.438 159.474C166.679 159.474 166.897 159.424 167.089 159.325C167.284 159.225 167.445 159.081 167.571 158.892C167.7 158.7 167.785 158.469 167.825 158.201H169.823C169.79 158.784 169.631 159.298 169.346 159.742C169.064 160.183 168.675 160.528 168.178 160.776C167.68 161.025 167.092 161.149 166.413 161.149ZM173.297 156.585V161H171.179V150.818H173.237V154.711H173.327C173.499 154.26 173.778 153.907 174.162 153.652C174.547 153.393 175.029 153.264 175.609 153.264C176.139 153.264 176.602 153.38 176.996 153.612C177.394 153.841 177.702 154.171 177.921 154.602C178.143 155.029 178.252 155.541 178.249 156.138V161H176.131V156.516C176.134 156.045 176.015 155.679 175.773 155.417C175.534 155.155 175.2 155.024 174.769 155.024C174.48 155.024 174.225 155.085 174.003 155.208C173.784 155.331 173.612 155.51 173.486 155.745C173.363 155.977 173.3 156.257 173.297 156.585ZM185.333 161.144C184.846 161.144 184.412 161.06 184.031 160.891C183.65 160.718 183.348 160.465 183.126 160.13C182.907 159.792 182.798 159.371 182.798 158.867C182.798 158.443 182.876 158.087 183.031 157.798C183.187 157.51 183.399 157.278 183.668 157.102C183.936 156.927 184.241 156.794 184.583 156.705C184.927 156.615 185.289 156.552 185.666 156.516C186.11 156.469 186.468 156.426 186.74 156.386C187.012 156.343 187.209 156.28 187.332 156.197C187.454 156.115 187.516 155.992 187.516 155.83V155.8C187.516 155.485 187.416 155.241 187.218 155.069C187.022 154.897 186.744 154.81 186.382 154.81C186.001 154.81 185.698 154.895 185.472 155.064C185.247 155.23 185.098 155.438 185.025 155.69L183.066 155.531C183.166 155.067 183.361 154.666 183.653 154.328C183.945 153.987 184.321 153.725 184.781 153.543C185.245 153.357 185.782 153.264 186.392 153.264C186.816 153.264 187.222 153.314 187.61 153.413C188.001 153.513 188.348 153.667 188.649 153.876C188.954 154.085 189.195 154.353 189.37 154.681C189.546 155.006 189.634 155.395 189.634 155.849V161H187.625V159.941H187.566C187.443 160.18 187.279 160.39 187.073 160.572C186.868 160.751 186.621 160.892 186.333 160.995C186.044 161.094 185.711 161.144 185.333 161.144ZM185.94 159.683C186.251 159.683 186.526 159.621 186.765 159.499C187.004 159.373 187.191 159.204 187.327 158.991C187.463 158.779 187.531 158.539 187.531 158.271V157.46C187.464 157.503 187.373 157.543 187.257 157.58C187.145 157.613 187.017 157.644 186.874 157.674C186.732 157.701 186.589 157.725 186.447 157.749C186.304 157.768 186.175 157.787 186.059 157.803C185.811 157.84 185.593 157.898 185.408 157.977C185.222 158.057 185.078 158.165 184.975 158.3C184.873 158.433 184.821 158.599 184.821 158.798C184.821 159.086 184.926 159.306 185.134 159.459C185.347 159.608 185.615 159.683 185.94 159.683ZM193.395 156.585V161H191.277V153.364H193.295V154.711H193.385C193.554 154.267 193.837 153.915 194.235 153.657C194.633 153.395 195.115 153.264 195.682 153.264C196.212 153.264 196.674 153.38 197.069 153.612C197.463 153.844 197.77 154.176 197.988 154.607C198.207 155.034 198.317 155.545 198.317 156.138V161H196.199V156.516C196.202 156.048 196.083 155.684 195.841 155.422C195.599 155.157 195.266 155.024 194.841 155.024C194.556 155.024 194.305 155.085 194.086 155.208C193.87 155.331 193.701 155.51 193.579 155.745C193.459 155.977 193.398 156.257 193.395 156.585ZM203.426 164.023C202.74 164.023 202.152 163.928 201.661 163.739C201.174 163.554 200.786 163.3 200.498 162.979C200.21 162.657 200.022 162.296 199.936 161.895L201.895 161.631C201.955 161.784 202.049 161.926 202.178 162.059C202.308 162.192 202.478 162.298 202.69 162.377C202.906 162.46 203.168 162.501 203.476 162.501C203.937 162.501 204.316 162.389 204.614 162.163C204.916 161.941 205.067 161.568 205.067 161.045V159.648H204.977C204.884 159.86 204.745 160.06 204.56 160.249C204.374 160.438 204.135 160.592 203.844 160.712C203.552 160.831 203.204 160.891 202.8 160.891C202.226 160.891 201.704 160.758 201.234 160.493C200.766 160.224 200.393 159.815 200.115 159.265C199.84 158.711 199.702 158.012 199.702 157.167C199.702 156.302 199.843 155.579 200.125 154.999C200.407 154.419 200.781 153.985 201.249 153.697C201.719 153.408 202.235 153.264 202.795 153.264C203.222 153.264 203.58 153.337 203.869 153.483C204.157 153.625 204.389 153.804 204.565 154.02C204.744 154.232 204.881 154.441 204.977 154.646H205.057V153.364H207.16V161.075C207.16 161.724 207.001 162.268 206.683 162.705C206.364 163.143 205.924 163.471 205.36 163.69C204.8 163.912 204.155 164.023 203.426 164.023ZM203.471 159.3C203.812 159.3 204.101 159.215 204.336 159.046C204.575 158.874 204.757 158.629 204.883 158.31C205.012 157.989 205.077 157.604 205.077 157.157C205.077 156.71 205.014 156.322 204.888 155.994C204.762 155.662 204.58 155.405 204.341 155.223C204.102 155.041 203.812 154.95 203.471 154.95C203.123 154.95 202.83 155.044 202.591 155.233C202.352 155.419 202.172 155.677 202.049 156.009C201.926 156.34 201.865 156.723 201.865 157.157C201.865 157.598 201.926 157.979 202.049 158.3C202.175 158.619 202.356 158.866 202.591 159.041C202.83 159.214 203.123 159.3 203.471 159.3ZM212.325 161.149C211.54 161.149 210.864 160.99 210.297 160.672C209.733 160.35 209.299 159.896 208.994 159.31C208.689 158.72 208.537 158.022 208.537 157.217C208.537 156.431 208.689 155.742 208.994 155.148C209.299 154.555 209.728 154.093 210.282 153.761C210.839 153.43 211.492 153.264 212.241 153.264C212.745 153.264 213.214 153.345 213.648 153.508C214.085 153.667 214.466 153.907 214.791 154.229C215.119 154.55 215.375 154.955 215.557 155.442C215.739 155.926 215.83 156.492 215.83 157.142V157.724H209.382V156.411H213.837C213.837 156.106 213.77 155.836 213.638 155.601C213.505 155.366 213.321 155.182 213.086 155.049C212.854 154.913 212.584 154.845 212.276 154.845C211.954 154.845 211.669 154.92 211.42 155.069C211.175 155.215 210.983 155.412 210.844 155.661C210.705 155.906 210.633 156.179 210.63 156.481V157.729C210.63 158.107 210.7 158.433 210.839 158.708C210.981 158.983 211.182 159.195 211.44 159.344C211.699 159.494 212.005 159.568 212.36 159.568C212.595 159.568 212.811 159.535 213.006 159.469C213.202 159.402 213.369 159.303 213.509 159.17C213.648 159.038 213.754 158.875 213.827 158.683L215.786 158.812C215.686 159.283 215.482 159.694 215.174 160.045C214.869 160.393 214.475 160.665 213.991 160.861C213.51 161.053 212.955 161.149 212.325 161.149ZM217.173 161V159.737L220.911 155.109V155.054H217.302V153.364H223.462V154.741L219.952 159.255V159.31H223.591V161H217.173ZM228.472 161.149C227.686 161.149 227.01 160.99 226.443 160.672C225.88 160.35 225.446 159.896 225.141 159.31C224.836 158.72 224.683 158.022 224.683 157.217C224.683 156.431 224.836 155.742 225.141 155.148C225.446 154.555 225.875 154.093 226.428 153.761C226.985 153.43 227.638 153.264 228.387 153.264C228.891 153.264 229.36 153.345 229.794 153.508C230.232 153.667 230.613 153.907 230.938 154.229C231.266 154.55 231.521 154.955 231.703 155.442C231.886 155.926 231.977 156.492 231.977 157.142V157.724H225.529V156.411H229.983C229.983 156.106 229.917 155.836 229.784 155.601C229.652 155.366 229.468 155.182 229.232 155.049C229 154.913 228.73 154.845 228.422 154.845C228.101 154.845 227.816 154.92 227.567 155.069C227.322 155.215 227.129 155.412 226.99 155.661C226.851 155.906 226.78 156.179 226.776 156.481V157.729C226.776 158.107 226.846 158.433 226.985 158.708C227.128 158.983 227.328 159.195 227.587 159.344C227.845 159.494 228.152 159.568 228.507 159.568C228.742 159.568 228.957 159.535 229.153 159.469C229.348 159.402 229.516 159.303 229.655 159.17C229.794 159.038 229.9 158.875 229.973 158.683L231.932 158.812C231.833 159.283 231.629 159.694 231.32 160.045C231.016 160.393 230.621 160.665 230.137 160.861C229.657 161.053 229.102 161.149 228.472 161.149ZM233.359 161V153.364H235.477V161H233.359ZM234.423 152.379C234.108 152.379 233.838 152.275 233.612 152.066C233.39 151.854 233.279 151.6 233.279 151.305C233.279 151.014 233.39 150.763 233.612 150.555C233.838 150.343 234.108 150.237 234.423 150.237C234.738 150.237 235.006 150.343 235.228 150.555C235.454 150.763 235.566 151.014 235.566 151.305C235.566 151.6 235.454 151.854 235.228 152.066C235.006 152.275 234.738 152.379 234.423 152.379ZM240.614 164.023C239.928 164.023 239.339 163.928 238.849 163.739C238.362 163.554 237.974 163.3 237.685 162.979C237.397 162.657 237.21 162.296 237.124 161.895L239.082 161.631C239.142 161.784 239.237 161.926 239.366 162.059C239.495 162.192 239.666 162.298 239.878 162.377C240.093 162.46 240.355 162.501 240.663 162.501C241.124 162.501 241.504 162.389 241.802 162.163C242.103 161.941 242.254 161.568 242.254 161.045V159.648H242.165C242.072 159.86 241.933 160.06 241.747 160.249C241.562 160.438 241.323 160.592 241.031 160.712C240.74 160.831 240.392 160.891 239.987 160.891C239.414 160.891 238.892 160.758 238.421 160.493C237.954 160.224 237.581 159.815 237.303 159.265C237.027 158.711 236.89 158.012 236.89 157.167C236.89 156.302 237.031 155.579 237.312 154.999C237.594 154.419 237.969 153.985 238.436 153.697C238.907 153.408 239.422 153.264 239.982 153.264C240.41 153.264 240.768 153.337 241.056 153.483C241.344 153.625 241.576 153.804 241.752 154.02C241.931 154.232 242.069 154.441 242.165 154.646H242.244V153.364H244.347V161.075C244.347 161.724 244.188 162.268 243.87 162.705C243.552 163.143 243.111 163.471 242.548 163.69C241.987 163.912 241.343 164.023 240.614 164.023ZM240.658 159.3C241 159.3 241.288 159.215 241.523 159.046C241.762 158.874 241.944 158.629 242.07 158.31C242.2 157.989 242.264 157.604 242.264 157.157C242.264 156.71 242.201 156.322 242.075 155.994C241.949 155.662 241.767 155.405 241.528 155.223C241.29 155.041 241 154.95 240.658 154.95C240.31 154.95 240.017 155.044 239.778 155.233C239.54 155.419 239.359 155.677 239.237 156.009C239.114 156.34 239.053 156.723 239.053 157.157C239.053 157.598 239.114 157.979 239.237 158.3C239.362 158.619 239.543 158.866 239.778 159.041C240.017 159.214 240.31 159.3 240.658 159.3ZM250.094 153.364V154.955H245.496V153.364H250.094ZM246.54 151.534H248.658V158.653C248.658 158.849 248.688 159.001 248.747 159.111C248.807 159.217 248.89 159.291 248.996 159.335C249.105 159.378 249.231 159.399 249.374 159.399C249.473 159.399 249.572 159.391 249.672 159.374C249.771 159.354 249.848 159.339 249.901 159.33L250.234 160.906C250.128 160.939 249.978 160.977 249.786 161.02C249.594 161.066 249.36 161.094 249.085 161.104C248.575 161.124 248.127 161.056 247.743 160.901C247.362 160.745 247.065 160.503 246.853 160.175C246.641 159.847 246.536 159.432 246.54 158.932V151.534Z" fill="#306DC1"/>
<path d="M149.667 67.2083V80.0417H136.833V124.958H188.167V73.625H191.401C193.159 73.625 194.583 75.0525 194.583 76.8122V128.188C194.583 129.948 193.123 131.375 191.401 131.375H133.599C131.841 131.375 130.417 129.948 130.417 128.188V76.8122C130.417 75.0519 131.877 73.625 133.599 73.625H143.25V67.2083H149.667ZM181.75 67.2083V80.0417H156.083V73.625H175.333V67.2083H181.75Z" fill="#306DC1"/>
<path d="M158.501 108.549L174.588 92.4624L177.063 94.9373L158.501 113.499L147.364 102.362L149.839 99.8871L158.501 108.549Z" fill="url(#paint1_linear_39_30)"/>
<defs>
<filter id="filter0_d_39_30" x="0" y="0" width="326.275" height="214" filterUnits="userSpaceOnUse" color-interpolation-filters="sRGB">
<feFlood flood-opacity="0" result="BackgroundImageFix"/>
<feColorMatrix in="SourceAlpha" type="matrix" values="0 0 0 0 0 0 0 0 0 0 0 0 0 0 0 0 0 0 127 0" result="hardAlpha"/>
<feOffset dy="4"/>
<feGaussianBlur stdDeviation="2"/>
<feComposite in2="hardAlpha" operator="out"/>
<feColorMatrix type="matrix" values="0 0 0 0 0 0 0 0 0 0 0 0 0 0 0 0 0 0 0.25 0"/>
<feBlend mode="normal" in2="BackgroundImageFix" result="effect1_dropShadow_39_30"/>
<feBlend mode="normal" in="SourceGraphic" in2="effect1_dropShadow_39_30" result="shape"/>
</filter>
<linearGradient id="paint0_linear_39_30" x1="163.138" y1="11" x2="245" y2="208" gradientUnits="userSpaceOnUse">
<stop stop-color="#FF0000"/>
<stop offset="0.5" stop-color="#A166A6"/>
<stop offset="1" stop-color="#00FFFF"/>
</linearGradient>
<linearGradient id="paint1_linear_39_30" x1="162.214" y1="92.4624" x2="162.214" y2="113.499" gradientUnits="userSpaceOnUse">
<stop stop-color="#F10000"/>
<stop offset="0.463542" stop-color="#EC00F1"/>
<stop offset="1" stop-color="#00F1E3"/>
</linearGradient>
</defs>
</svg>
