<svg width="327" height="214" viewBox="0 0 327 214" fill="none" xmlns="http://www.w3.org/2000/svg">
<g filter="url(#filter0_d_10_5)">
<mask id="path-1-outside-1_10_5" maskUnits="userSpaceOnUse" x="4" y="0" width="319" height="206" fill="black">
<rect fill="white" x="4" width="319" height="206"/>
<path fill-rule="evenodd" clip-rule="evenodd" d="M221.451 194.975C271.256 193.819 311.275 153.083 311.275 103C311.275 52.1898 270.085 11 219.275 11C190.163 11 164.21 24.5215 147.352 45.6268C139.134 42.4644 130.196 40.7293 120.847 40.7293C92.1515 40.7293 67.3167 57.0781 55.3459 80.8715C31.9244 88.51 15 110.529 15 136.5C15 168.809 41.1913 195 73.5 195C75.4392 195 77.3564 194.906 79.2472 194.721C80.5898 194.905 81.9606 195 83.3537 195H219.275H220.21C220.626 195 221.04 194.992 221.451 194.975Z"/>
</mask>
<path fill-rule="evenodd" clip-rule="evenodd" d="M221.451 194.975C271.256 193.819 311.275 153.083 311.275 103C311.275 52.1898 270.085 11 219.275 11C190.163 11 164.21 24.5215 147.352 45.6268C139.134 42.4644 130.196 40.7293 120.847 40.7293C92.1515 40.7293 67.3167 57.0781 55.3459 80.8715C31.9244 88.51 15 110.529 15 136.5C15 168.809 41.1913 195 73.5 195C75.4392 195 77.3564 194.906 79.2472 194.721C80.5898 194.905 81.9606 195 83.3537 195H219.275H220.21C220.626 195 221.04 194.992 221.451 194.975Z" fill="white" shape-rendering="crispEdges"/>
<path d="M221.451 194.975L221.196 183.978L221.1 183.98L221.004 183.984L221.451 194.975ZM147.352 45.6268L143.401 55.8928L150.919 58.786L155.947 52.4919L147.352 45.6268ZM55.3459 80.8715L58.7566 91.3294L63.1129 89.9087L65.1723 85.8153L55.3459 80.8715ZM79.2472 194.721L80.739 183.823L79.4622 183.648L78.1796 183.773L79.2472 194.721ZM300.275 103C300.275 147.093 265.041 182.96 221.196 183.978L221.707 205.972C277.472 204.677 322.275 159.072 322.275 103H300.275ZM219.275 22C264.01 22 300.275 58.2649 300.275 103H322.275C322.275 46.1147 276.16 0 219.275 0V22ZM155.947 52.4919C170.807 33.8874 193.649 22 219.275 22V0C186.678 0 157.612 15.1555 138.757 38.7617L155.947 52.4919ZM120.847 51.7293C128.825 51.7293 136.426 53.2085 143.401 55.8928L151.303 35.3607C141.843 31.7202 131.566 29.7293 120.847 29.7293V51.7293ZM65.1723 85.8153C75.3257 65.6342 96.4198 51.7293 120.847 51.7293V29.7293C87.8832 29.7293 59.3077 48.5219 45.5195 75.9277L65.1723 85.8153ZM26 136.5C26 115.429 39.7276 97.5353 58.7566 91.3294L51.9353 70.4136C24.1212 79.4847 4 105.628 4 136.5H26ZM73.5 184C47.2665 184 26 162.734 26 136.5H4C4 174.884 35.1162 206 73.5 206V184ZM78.1796 183.773C76.6431 183.923 75.0822 184 73.5 184V206C75.7963 206 78.0697 205.888 80.3147 205.669L78.1796 183.773ZM83.3537 184C82.4611 184 81.5886 183.939 80.739 183.823L77.7554 205.62C79.5909 205.871 81.4602 206 83.3537 206V184ZM219.275 184H83.3537V206H219.275V184ZM220.21 184H219.275V206H220.21V184ZM221.004 183.984C220.741 183.995 220.476 184 220.21 184V206C220.775 206 221.338 205.988 221.899 205.966L221.004 183.984Z" fill="white" fill-opacity="0.31" mask="url(#path-1-outside-1_10_5)"/>
</g>
<path d="M147.667 74.2083V87.0417H134.833V131.958H186.167V80.625H189.401C191.159 80.625 192.583 82.0525 192.583 83.8122V135.188C192.583 136.948 191.123 138.375 189.401 138.375H131.599C129.841 138.375 128.417 136.948 128.417 135.188V83.8122C128.417 82.0519 129.878 80.625 131.599 80.625H141.25V74.2083H147.667ZM160.5 96.6667L173.333 109.5H163.708V122.333H157.292V109.5H147.667L160.5 96.6667ZM179.75 74.2083V87.0417H154.083V80.625H173.333V74.2083H179.75Z" fill="#306DC1"/>
<path d="M120.885 162V151.818H123.038V156.019H127.408V151.818H129.555V162H127.408V157.794H123.038V162H120.885ZM134.741 162.149C133.969 162.149 133.301 161.985 132.737 161.657C132.177 161.326 131.745 160.865 131.44 160.275C131.135 159.682 130.982 158.994 130.982 158.212C130.982 157.423 131.135 156.733 131.44 156.143C131.745 155.55 132.177 155.089 132.737 154.761C133.301 154.43 133.969 154.264 134.741 154.264C135.513 154.264 136.179 154.43 136.739 154.761C137.303 155.089 137.737 155.55 138.042 156.143C138.347 156.733 138.499 157.423 138.499 158.212C138.499 158.994 138.347 159.682 138.042 160.275C137.737 160.865 137.303 161.326 136.739 161.657C136.179 161.985 135.513 162.149 134.741 162.149ZM134.751 160.509C135.102 160.509 135.395 160.409 135.631 160.21C135.866 160.008 136.043 159.733 136.163 159.385C136.285 159.037 136.347 158.641 136.347 158.197C136.347 157.753 136.285 157.357 136.163 157.009C136.043 156.661 135.866 156.385 135.631 156.183C135.395 155.981 135.102 155.88 134.751 155.88C134.396 155.88 134.098 155.981 133.856 156.183C133.617 156.385 133.437 156.661 133.314 157.009C133.195 157.357 133.135 157.753 133.135 158.197C133.135 158.641 133.195 159.037 133.314 159.385C133.437 159.733 133.617 160.008 133.856 160.21C134.098 160.409 134.396 160.509 134.751 160.509ZM143.327 162.149C142.545 162.149 141.872 161.983 141.308 161.652C140.748 161.317 140.317 160.853 140.016 160.26C139.717 159.667 139.568 158.984 139.568 158.212C139.568 157.429 139.719 156.743 140.021 156.153C140.326 155.56 140.758 155.098 141.318 154.766C141.878 154.432 142.545 154.264 143.317 154.264C143.983 154.264 144.566 154.385 145.067 154.627C145.567 154.869 145.963 155.209 146.255 155.646C146.547 156.084 146.707 156.598 146.737 157.188H144.739C144.682 156.806 144.533 156.5 144.291 156.268C144.053 156.032 143.739 155.915 143.352 155.915C143.023 155.915 142.737 156.004 142.491 156.183C142.25 156.359 142.061 156.616 141.925 156.954C141.789 157.292 141.721 157.701 141.721 158.182C141.721 158.669 141.787 159.083 141.92 159.425C142.056 159.766 142.246 160.026 142.491 160.205C142.737 160.384 143.023 160.474 143.352 160.474C143.594 160.474 143.811 160.424 144.003 160.325C144.198 160.225 144.359 160.081 144.485 159.892C144.614 159.7 144.699 159.469 144.739 159.201H146.737C146.704 159.784 146.545 160.298 146.26 160.742C145.978 161.183 145.589 161.528 145.092 161.776C144.594 162.025 144.006 162.149 143.327 162.149ZM150.211 157.585V162H148.093V151.818H150.151V155.711H150.241C150.413 155.26 150.692 154.907 151.076 154.652C151.461 154.393 151.943 154.264 152.523 154.264C153.053 154.264 153.516 154.38 153.91 154.612C154.308 154.841 154.616 155.171 154.835 155.602C155.057 156.029 155.166 156.541 155.163 157.138V162H153.045V157.516C153.048 157.045 152.929 156.679 152.687 156.417C152.448 156.155 152.114 156.024 151.683 156.024C151.394 156.024 151.139 156.085 150.917 156.208C150.698 156.331 150.526 156.51 150.4 156.745C150.277 156.977 150.214 157.257 150.211 157.585ZM160.31 162.149C159.524 162.149 158.848 161.99 158.281 161.672C157.718 161.35 157.284 160.896 156.979 160.31C156.674 159.72 156.521 159.022 156.521 158.217C156.521 157.431 156.674 156.742 156.979 156.148C157.284 155.555 157.713 155.093 158.266 154.761C158.823 154.43 159.476 154.264 160.225 154.264C160.729 154.264 161.198 154.345 161.632 154.508C162.07 154.667 162.451 154.907 162.776 155.229C163.104 155.55 163.359 155.955 163.541 156.442C163.723 156.926 163.815 157.492 163.815 158.142V158.724H157.366V157.411H161.821C161.821 157.106 161.755 156.836 161.622 156.601C161.49 156.366 161.306 156.182 161.07 156.049C160.838 155.913 160.568 155.845 160.26 155.845C159.938 155.845 159.653 155.92 159.405 156.069C159.16 156.215 158.967 156.412 158.828 156.661C158.689 156.906 158.618 157.179 158.614 157.481V158.729C158.614 159.107 158.684 159.433 158.823 159.708C158.966 159.983 159.166 160.195 159.425 160.344C159.683 160.494 159.99 160.568 160.344 160.568C160.58 160.568 160.795 160.535 160.991 160.469C161.186 160.402 161.354 160.303 161.493 160.17C161.632 160.038 161.738 159.875 161.811 159.683L163.77 159.812C163.67 160.283 163.467 160.694 163.158 161.045C162.853 161.393 162.459 161.665 161.975 161.861C161.495 162.053 160.939 162.149 160.31 162.149ZM167.315 151.818V162H165.197V151.818H167.315ZM171.189 162.144C170.702 162.144 170.267 162.06 169.886 161.891C169.505 161.718 169.203 161.465 168.981 161.13C168.763 160.792 168.653 160.371 168.653 159.867C168.653 159.443 168.731 159.087 168.887 158.798C169.043 158.51 169.255 158.278 169.523 158.102C169.792 157.927 170.097 157.794 170.438 157.705C170.783 157.615 171.144 157.552 171.522 157.516C171.966 157.469 172.324 157.426 172.596 157.386C172.867 157.343 173.065 157.28 173.187 157.197C173.31 157.115 173.371 156.992 173.371 156.83V156.8C173.371 156.485 173.272 156.241 173.073 156.069C172.877 155.897 172.599 155.81 172.238 155.81C171.857 155.81 171.553 155.895 171.328 156.064C171.103 156.23 170.953 156.438 170.881 156.69L168.922 156.531C169.021 156.067 169.217 155.666 169.508 155.328C169.8 154.987 170.176 154.725 170.637 154.543C171.101 154.357 171.638 154.264 172.248 154.264C172.672 154.264 173.078 154.314 173.466 154.413C173.857 154.513 174.203 154.667 174.505 154.876C174.81 155.085 175.05 155.353 175.226 155.681C175.401 156.006 175.489 156.395 175.489 156.849V162H173.481V160.941H173.421C173.298 161.18 173.134 161.39 172.929 161.572C172.723 161.751 172.476 161.892 172.188 161.995C171.9 162.094 171.567 162.144 171.189 162.144ZM171.795 160.683C172.107 160.683 172.382 160.621 172.621 160.499C172.859 160.373 173.046 160.204 173.182 159.991C173.318 159.779 173.386 159.539 173.386 159.271V158.46C173.32 158.503 173.229 158.543 173.113 158.58C173 158.613 172.872 158.644 172.73 158.674C172.587 158.701 172.445 158.725 172.302 158.749C172.16 158.768 172.031 158.787 171.915 158.803C171.666 158.84 171.449 158.898 171.263 158.977C171.078 159.057 170.934 159.165 170.831 159.3C170.728 159.433 170.677 159.599 170.677 159.798C170.677 160.086 170.781 160.306 170.99 160.459C171.202 160.608 171.47 160.683 171.795 160.683ZM179.946 162.124C179.366 162.124 178.841 161.975 178.37 161.677C177.903 161.375 177.532 160.933 177.257 160.349C176.985 159.763 176.849 159.044 176.849 158.192C176.849 157.317 176.99 156.589 177.271 156.009C177.553 155.426 177.928 154.99 178.395 154.702C178.866 154.41 179.381 154.264 179.941 154.264C180.369 154.264 180.725 154.337 181.01 154.483C181.298 154.625 181.53 154.804 181.706 155.02C181.885 155.232 182.021 155.441 182.114 155.646H182.178V151.818H184.291V162H182.203V160.777H182.114C182.014 160.989 181.874 161.2 181.691 161.408C181.512 161.614 181.279 161.785 180.99 161.92C180.705 162.056 180.357 162.124 179.946 162.124ZM180.617 160.439C180.959 160.439 181.247 160.346 181.482 160.161C181.721 159.972 181.903 159.708 182.029 159.37C182.159 159.032 182.223 158.636 182.223 158.182C182.223 157.728 182.16 157.333 182.034 156.999C181.908 156.664 181.726 156.405 181.487 156.223C181.249 156.041 180.959 155.95 180.617 155.95C180.269 155.95 179.976 156.044 179.737 156.233C179.499 156.422 179.318 156.684 179.195 157.018C179.073 157.353 179.012 157.741 179.012 158.182C179.012 158.626 179.073 159.019 179.195 159.36C179.321 159.698 179.502 159.963 179.737 160.156C179.976 160.344 180.269 160.439 180.617 160.439ZM189.513 162.149C188.727 162.149 188.051 161.99 187.484 161.672C186.921 161.35 186.487 160.896 186.182 160.31C185.877 159.72 185.724 159.022 185.724 158.217C185.724 157.431 185.877 156.742 186.182 156.148C186.487 155.555 186.916 155.093 187.469 154.761C188.026 154.43 188.679 154.264 189.428 154.264C189.932 154.264 190.401 154.345 190.835 154.508C191.273 154.667 191.654 154.907 191.979 155.229C192.307 155.55 192.562 155.955 192.744 156.442C192.927 156.926 193.018 157.492 193.018 158.142V158.724H186.57V157.411H191.024C191.024 157.106 190.958 156.836 190.825 156.601C190.693 156.366 190.509 156.182 190.273 156.049C190.041 155.913 189.771 155.845 189.463 155.845C189.142 155.845 188.857 155.92 188.608 156.069C188.363 156.215 188.17 156.412 188.031 156.661C187.892 156.906 187.821 157.179 187.817 157.481V158.729C187.817 159.107 187.887 159.433 188.026 159.708C188.169 159.983 188.369 160.195 188.628 160.344C188.886 160.494 189.193 160.568 189.548 160.568C189.783 160.568 189.998 160.535 190.194 160.469C190.389 160.402 190.557 160.303 190.696 160.17C190.835 160.038 190.941 159.875 191.014 159.683L192.973 159.812C192.874 160.283 192.67 160.694 192.362 161.045C192.057 161.393 191.662 161.665 191.178 161.861C190.698 162.053 190.143 162.149 189.513 162.149ZM196.518 157.585V162H194.4V154.364H196.418V155.711H196.508C196.677 155.267 196.96 154.915 197.358 154.657C197.756 154.395 198.238 154.264 198.805 154.264C199.335 154.264 199.797 154.38 200.192 154.612C200.586 154.844 200.893 155.176 201.112 155.607C201.33 156.034 201.44 156.545 201.44 157.138V162H199.322V157.516C199.325 157.048 199.206 156.684 198.964 156.422C198.722 156.157 198.389 156.024 197.964 156.024C197.679 156.024 197.428 156.085 197.209 156.208C196.993 156.331 196.824 156.51 196.702 156.745C196.582 156.977 196.521 157.257 196.518 157.585Z" fill="#306DC1"/>
<defs>
<filter id="filter0_d_10_5" x="0" y="0" width="326.275" height="214" filterUnits="userSpaceOnUse" color-interpolation-filters="sRGB">
<feFlood flood-opacity="0" result="BackgroundImageFix"/>
<feColorMatrix in="SourceAlpha" type="matrix" values="0 0 0 0 0 0 0 0 0 0 0 0 0 0 0 0 0 0 127 0" result="hardAlpha"/>
<feOffset dy="4"/>
<feGaussianBlur stdDeviation="2"/>
<feComposite in2="hardAlpha" operator="out"/>
<feColorMatrix type="matrix" values="0 0 0 0 0 0 0 0 0 0 0 0 0 0 0 0 0 0 0.25 0"/>
<feBlend mode="normal" in2="BackgroundImageFix" result="effect1_dropShadow_10_5"/>
<feBlend mode="normal" in="SourceGraphic" in2="effect1_dropShadow_10_5" result="shape"/>
</filter>
</defs>
</svg>
